# xmcd
#
# Track frame offsets: 
#        150
#        16656
#        35562
#        48399
#        63808
#        85836
#        102141
#        139249
#        166840
#        181086
#        209806
#        225269
#
# Disc length: 3166 seconds
#
# Revision: 0
# Processed by: cddbd v1.5.2PL0 Copyright (c) Steve Scherf et al.
# Submitted via: ExactAudioCopy v0.99pb5
#
DISCID=900c5c0c
DTITLE=Steve Gannon Band - '52 Ford
DYEAR=2002
DGENRE=Blues
TTITLE0=Just Can't Leave You Alone
TTITLE1=Baby Loves To Dance
TTITLE2=One For Sonny
TTITLE3=Key To The Highway
TTITLE4=Down At The Deluxe Inn
TTITLE5=Ten Years Gone By
TTITLE6=Drown In My Own Tears
TTITLE7=Leah's Tune
TTITLE8='52 Ford
TTITLE9=So Many Roads
TTITLE10=Feel Like Crying
TTITLE11=Ain't Coming Back No More
EXTD=
EXTT0=
EXTT1=
EXTT2=
EXTT3=
EXTT4=
EXTT5=
EXTT6=
EXTT7=
EXTT8=
EXTT9=
EXTT10=
EXTT11=
PLAYORDER=
